# xmcd
#
# Track frame offsets: 
#        183
#        30870
#        43448
#        67348
#        79705
#        99230
#        119430
#        136625
#        148878
#        168993
#        192108
#        218383
#        229180
#        247363
#
# Disc length: 3493 seconds
#
# Revision: 0
# Processed by: cddbd v1.5.2PL0 Copyright (c) Steve Scherf et al.
# Submitted via: ExactAudioCopy v0.99pb5
#
DISCID=c50da30e
DTITLE=Various Artist - St Louis Blues Today Vol 2
DYEAR=1998
DGENRE=Blues
TTITLE0=Eugene Fluker and His Bluesmen - Blues After Hours
TTITLE1=Big Bad Smitty and The Upsetters - Tell Me What You Are Going To
TTITLE1=Do
TTITLE2=Big Bad Smitty and The Upsetters - Blues Is Killing Me
TTITLE3=Eugene Fluker and His Bluesmen - Play My Guitar
TTITLE4=Big Bad Smitty and The Upsetters - Can't Walk Away From Love
TTITLE5=Eugene Fluker and His Bluesmen - St. Loius Jump
TTITLE6=Big Bad Smitty and The Upsetters - St. Loius On A High Hill
TTITLE7=Big Bad Smitty and The Upsetters - All Nite Long
TTITLE8=Eugene Fluker and His Bluesmen - Woke Up This Morning
TTITLE9=Big Bad Smitty and The Upsetters - How Many More Years
TTITLE10=Big Bad Smitty and The Upsetters - You Don't Leave
TTITLE11=Eugene Fluker and His Bluesmen - Later Baby
TTITLE12=Big Bad Smitty and The Upsetters - My Guitar Cries The Blues
TTITLE13=Eugene Fluker and His Bluesmen - Fluker's Blues
EXTD=
EXTT0=
EXTT1=
EXTT2=
EXTT3=
EXTT4=
EXTT5=
EXTT6=
EXTT7=
EXTT8=
EXTT9=
EXTT10=
EXTT11=
EXTT12=
EXTT13=
PLAYORDER=
